<?xml version="1.0" encoding="UTF-8" standalone="no"?>
<!-- Created with Inkscape (http://www.inkscape.org/) -->

<svg
   width="300"
   height="300"
   viewBox="0 0 79.375 79.374999"
   version="1.1"
   id="svg1"
   inkscape:version="1.3 (0e150ed6c4, 2023-07-21)"
   sodipodi:docname="gregor.svg"
   xmlns:inkscape="http://www.inkscape.org/namespaces/inkscape"
   xmlns:sodipodi="http://sodipodi.sourceforge.net/DTD/sodipodi-0.dtd"
   xmlns="http://www.w3.org/2000/svg"
   xmlns:svg="http://www.w3.org/2000/svg">
  <sodipodi:namedview
     id="namedview1"
     pagecolor="#ffffff"
     bordercolor="#000000"
     borderopacity="0.25"
     inkscape:showpageshadow="2"
     inkscape:pageopacity="0.0"
     inkscape:pagecheckerboard="0"
     inkscape:deskcolor="#d1d1d1"
     inkscape:document-units="mm"
     showgrid="true"
     showguides="false"
     inkscape:zoom="3.7846084"
     inkscape:cx="232.52075"
     inkscape:cy="190.37637"
     inkscape:window-width="2880"
     inkscape:window-height="1526"
     inkscape:window-x="2869"
     inkscape:window-y="-11"
     inkscape:window-maximized="1"
     inkscape:current-layer="path3">
    <inkscape:grid
       id="grid1"
       units="mm"
       originx="0"
       originy="0"
       spacingx="1"
       spacingy="0.99999999"
       empcolor="#0099e5"
       empopacity="0.30196078"
       color="#0099e5"
       opacity="0.14901961"
       empspacing="5"
       dotted="false"
       gridanglex="30"
       gridanglez="30"
       visible="true" />
  </sodipodi:namedview>
  <defs
     id="defs1" />
  <g
     inkscape:label="Layer 1"
     inkscape:groupmode="layer"
     id="layer1">
    <g
       id="g1">
      <text
         xml:space="preserve"
         style="font-style:normal;font-variant:normal;font-weight:normal;font-stretch:normal;font-size:306.667px;line-height:1;font-family:'Franklin Gothic Book';-inkscape-font-specification:'Franklin Gothic Book, ';font-variant-ligatures:normal;font-variant-position:normal;font-variant-caps:normal;font-variant-numeric:normal;font-variant-alternates:normal;font-variant-east-asian:normal;font-feature-settings:normal;text-indent:0;text-align:start;text-decoration-line:none;text-decoration-style:solid;text-decoration-color:#000000;letter-spacing:normal;word-spacing:normal;text-transform:none;writing-mode:lr-tb;direction:ltr;text-orientation:mixed;dominant-baseline:auto;baseline-shift:baseline;text-anchor:start;white-space:normal;shape-padding:0;shape-margin:0;inline-size:0;opacity:1;vector-effect:none;fill:#000000;fill-opacity:1;stroke:none;stroke-width:5.91874;stroke-linecap:butt;stroke-linejoin:miter;stroke-miterlimit:4;stroke-dasharray:none;stroke-dashoffset:0;stroke-opacity:1;-inkscape-stroke:none;paint-order:markers fill stroke;stop-color:#000000;stop-opacity:1"
         x="119.576"
         y="141.99651"
         id="text1"
         transform="matrix(0.26458333,0,0,0.26458333,-30.055924,32.824235)"><tspan
           sodipodi:role="line"
           id="tspan1"
           x="119.576"
           y="141.99651"
           style="font-style:normal;font-variant:normal;font-weight:normal;font-stretch:normal;font-family:'Franklin Gothic Book';-inkscape-font-specification:'Franklin Gothic Book, '" /></text>
      <g
         id="path3">
        <path
           style="color:#000000;fill:#f8f4ec;-inkscape-stroke:none;paint-order:markers fill stroke;fill-opacity:0"
           d="M 71.593093,38.590517 C 72.499797,35.774981 72.9988,33.045662 73.122464,30.448318 73.763432,16.98592 64.32092,7.0690042 49.300854,7.0690048 31.382917,7.0690055 12.312778,21.181667 6.7065055,38.590517 1.1002328,55.999368 11.08081,70.112029 28.998747,70.112027 46.916682,70.112026 65.98682,55.999366 71.593093,38.590517 h -31.88401"
           id="path4"
           sodipodi:nodetypes="csssscc" />
        <path
           style="color:#000000;fill:#c2f8dc;fill-opacity:1;stroke:none;stroke-width:1.00134;stroke-opacity:1;-inkscape-stroke:none;paint-order:markers fill stroke"
           d="M 66.944217,33.272258 H 46.162728 l -5.700218,12.31302 h 21.698776 c -7.076467,11.27503 -20.427084,20.030699 -32.165491,20.0307 -7.215349,10e-7 -11.964126,-2.77107 -14.724783,-6.869959 -2.760658,-4.098889 -3.76358,-9.974633 -1.47725,-17.429416 4.572657,-14.909563 21.611143,-28.075046 36.041841,-28.075046 7.215349,0 11.964127,2.773074 14.724784,6.871964 1.826784,2.712321 2.645865,4.969663 2.645865,4.969663 l 11.444714,0.06642 c 0,0 -0.723759,-6.515211 -4.515176,-12.144523 C 69.012215,5.397844 60.129624,0.92853828 49.835603,0.92853868 29.247561,0.92853878 9.0165361,16.726619 2.6323187,37.542936 -0.55979013,47.951095 0.57394194,58.24723 5.6975167,65.854463 10.821091,73.461695 19.701774,77.928998 29.995795,77.928997 c 20.588039,-10e-7 40.820974,-15.796077 47.205192,-36.612394 0.516023,-2.698356 1.230518,-3.901531 1.548069,-8.095068"
           id="path5"
           sodipodi:nodetypes="ccccsssssccssssscc" />
      </g>
    </g>
  </g>
</svg>
